<?xml version="1.0" encoding="UTF-8" standalone="no"?>
<svg version="1.1" x="0px" y="0px" viewBox="0 0 1000000 1000000" enable-background="new 0 0 1000 1000"
    xml:space="preserve" id="svg6" width="1000000" height="1000000" xmlns="http://www.w3.org/2000/svg"><defs
   id="defs10" />
	
<path
   id="path1428"
   style="display:inline;opacity:1;fill:#000000;fill-opacity:1;stroke:#000000;stroke-width:1.88976;stroke-linecap:round;stroke-linejoin:round"
   d="M 707.93381,501.17743 A 205.10233,205.10233 0 0 1 502.83148,706.27975 205.10233,205.10233 0 0 1 297.72916,501.17743 205.10233,205.10233 0 0 1 502.83148,296.0751 205.10233,205.10233 0 0 1 707.93381,501.17743 Z M 165.3407,634.12713 c 47.50592,84.21304 -132.586975,73.32966 -14.05943,204.27528 118.52755,130.94562 127.0091,-41.00385 211.8513,-7.58208 84.8422,33.42177 -29.28154,152.91638 137.4246,156.17504 166.70614,3.25866 57.07257,-116.17991 137.90649,-153.3172 80.83392,-37.13729 102.78765,132.91831 215.02663,7.44323 C 965.72927,715.64632 796.86025,714.30127 841.08491,631.88397 885.30957,549.46667 992.62262,666.91878 989.11332,497.90588 985.60402,328.89298 884.93856,448.28879 841.08491,363.8912 797.23126,279.49361 967.38332,285.091 855.14434,159.61592 742.90536,34.140841 720.95163,204.19644 640.11771,167.05915 559.28379,129.92186 667.26187,5.5203127 499.64342,9.3645941 332.02497,13.208876 447.97477,132.99506 363.13257,166.41683 278.29037,199.8386 270.54996,37.08129 151.28127,158.83475 32.012578,280.58821 207.5766,277.396 165.3407,363.11003 123.1048,448.82406 13.764982,329.17807 10.686947,496.17443 7.6089117,663.17078 117.83478,549.91409 165.3407,634.12713 Z" /></svg>
