<?xml version="1.0" encoding="UTF-8" standalone="no"?>
<svg version="1.1" viewBox="0 0 999.99995 999.99995" fill="none" stroke="none" stroke-linecap="square"
    stroke-miterlimit="10" id="svg15" width="1000" height="1000" xmlns="http://www.w3.org/2000/svg">
  <defs
     id="defs19" />
  <clipPath
     id="p.0">
    <path
       d="M 0,0 H 960 V 720 H 0 Z"
       id="path2" />
  </clipPath>
  <g
     clip-path="url(#p.0)"
     id="g13"
     transform="translate(29.590124,125.75803)">
    <path
       id="path7"
       d="m 162.1582,70 v 0.191406 c -18.86704,1.943149 -33.73242,22.967536 -33.73242,48.673824 v 59.61133 c 0,0.60957 0.0479,1.20253 0.0644,1.80664 -0.0133,0.43516 -0.0644,0.86045 -0.0644,1.29883 v 390.23633 c 0,23.30003 18.88749,42.18945 42.1875,42.18945 h 618.77344 c 23.30002,0 42.1875,-18.88942 42.1875,-42.18945 V 181.58203 c 0,-11.18906 -4.44361,-21.92016 -12.35547,-29.83203 -7.91186,-7.91186 -18.64296,-12.35742 -29.83203,-12.35742 H 456.625 L 399.42578,70 h -106 H 165 Z"
       style="fill:#000000;fill-opacity:1" />
  </g>
</svg>
